
Complete name                    : Battle.In.Seattle.2007.avi
Format                           : AVI
File size                        : 1.37 GiB
Duration                         : 1h 35mn
Overall bit rate                 : 2 061 Kbps

Video

Format                           : MPEG-4 Visual
Codec ID/Hint                    : XviD
Duration                         : 1h 35mn
Bit rate                         : 1 602 Kbps
Width                            : 720 pixels
Height                           : 552 pixels
Display aspect ratio             : 1.855
Stream size                      : 1.06 GiB (78%)
Writing library                  : XviD 1.1.2 (UTC 2006-11-01)

Audio

Format                           : AC-3
Duration                         : 1h 35mn
Bit rate                         : 448 Kbps
Channel(s)                       : 6 channels
Channel positions                : Front: L C R, Side: L R, LFE
Sampling rate                    : 48.0 KHz
Bit depth                        : 16 bits
Stream size                      : 305 MiB (22%)


Text #1
Language                         : Danish

Text #2
Language                         : Norwegian

Text #3
Language                         : Finnish

Text #4
Language                         : Swedish